/vscmnt/brussel_pixiu_data/_data_brussel/112/vsc11236/PredSimResults/SUBJ09opt3D/expIG/worker_05.mot
version=1
nRows=4
nColumns=50
inDegrees=yes
endheader
                time	         pelvis_tilt	         pelvis_list	     pelvis_rotation	           pelvis_tx	           pelvis_ty	           pelvis_tz	       hip_flexion_r	     hip_adduction_r	      hip_rotation_r	        knee_angle_r	       ankle_angle_r	         mtp_angle_r	       hip_flexion_l	     hip_adduction_l	      hip_rotation_l	        knee_angle_l	       ankle_angle_l	         mtp_angle_l	    lumbar_extension	      lumbar_bending	     lumbar_rotation	 ercspn_r/activation	 intobl_r/activation	 extobl_r/activation	    abd_r/activation	    add_r/activation	hamstrings_r/activation	bifemsh_r/activation	glut_max_r/activation	iliopsoas_r/activation	rect_fem_r/activation	  vasti_r/activation	gastroc_r/activation	 soleus_r/activation	tib_ant_r/activation	 ercspn_l/activation	 intobl_l/activation	 extobl_l/activation	    abd_l/activation	    add_l/activation	hamstrings_l/activation	bifemsh_l/activation	glut_max_l/activation	iliopsoas_l/activation	rect_fem_l/activation	  vasti_l/activation	gastroc_l/activation	 soleus_l/activation	tib_ant_l/activation	
          1.44433799	         -3.31823448	         -0.80083148	          8.52309021	          1.44433799	          0.99750231	         -0.00386782	         24.10588218	         -1.08028547	         -9.95141621	         -1.08442430	          2.01761593	          0.23877354	        -11.10555574	         -2.92700110	         -8.56345564	        -13.51958438	          5.45546900	         34.24791666	        -12.94279644	         -2.12786245	         -8.00746561	          0.01838624	          0.18514766	          0.04894984	          0.00999999	          0.22965004	          0.04720035	          0.02802475	          0.03381491	          0.08887132	          0.02294151	          0.01831797	          0.01244473	          0.00999999	          0.30273375	          0.00999999	          0.00999999	          0.00999999	          0.04204318	          0.00999999	          0.02285933	          0.08280778	          0.02331697	          0.00999999	          0.00999999	          0.00999999	          0.23426292	          0.23095322	          0.00999999	
          1.45878137	         -3.41079980	         -0.93777655	          8.38540694	          1.46383960	          0.99542491	         -0.00269283	         23.39952085	         -0.74145673	        -10.20844356	         -1.52362160	          1.43776939	          0.21144022	        -11.57967952	         -3.33475699	         -9.23669027	        -14.47298400	          4.49920733	         35.73526583	        -12.31195730	         -1.60275919	         -8.19092893	          0.01481898	          0.16528889	          0.03945268	          0.06223588	          0.18509372	          0.05760077	          0.02258744	          0.03054425	          0.07162866	          0.01849044	          0.01476395	          0.01240722	          0.01240722	          0.34787581	          0.00999999	          0.00999999	          0.00999999	          0.03388603	          0.00999999	          0.02730783	          0.06674155	          0.01879305	          0.00999999	          0.00999999	          0.01000004	          0.20340722	          0.20900189	          0.00999999	
          1.47322475	         -3.48271733	         -1.11603942	          8.20702991	          1.48355936	          0.99374786	         -0.00143008	         22.57912876	         -0.35039821	        -10.50433387	         -1.76603903	          0.57622417	          0.20306417	        -11.82010223	         -3.83203147	         -9.92566214	        -15.88629383	          3.38130557	         37.18074179	        -11.67472503	         -1.01772499	         -8.32852041	          0.01194382	          0.13321981	          0.03179813	          0.10743248	          0.14918215	          0.06227378	          0.01820506	          0.05419182	          0.05773138	          0.01490295	          0.01189947	          0.00999999	          0.00999999	          0.40046546	          0.00999999	          0.00999999	          0.00999999	          0.02731152	          0.00999999	          0.02737281	          0.05379247	          0.01514685	          0.00999999	          0.00999999	          0.00999999	          0.16394249	          0.17852844	          0.00999999	
          1.48766813	         -3.53682453	         -1.32563049	          7.99229520	          1.50309684	          0.99277210	         -0.00006155	         21.77431996	          0.07753717	        -10.81370714	         -2.05440926	         -0.18339012	          0.16816461	        -11.71546924	         -4.42783395	        -10.61408831	        -17.89933894	          2.07199425	         38.44241939	        -11.07854897	         -0.38661430	         -8.42121576	          0.01000000	          0.10737273	          0.02562871	          0.15306892	          0.12023808	          0.06076650	          0.01467295	          0.07394213	          0.04653044	          0.01201151	          0.02249214	          0.00999999	          0.00999999	          0.42497228	          0.04892954	          0.00999999	          0.00999999	          0.02201258	          0.00999999	          0.04169432	          0.04335574	          0.01220809	          0.00999999	          0.00999999	          0.01539392	          0.13213464	          0.14389065	          0.00999999	
